<?xml version="1.0" standalone="no"?>
<!DOCTYPE svg PUBLIC "-//W3C//DTD SVG 20010904//EN"
 "http://www.w3.org/TR/2001/REC-SVG-20010904/DTD/svg10.dtd">
<svg version="1.0" xmlns="http://www.w3.org/2000/svg"
 width="640.000000pt" height="640.000000pt" viewBox="0 0 640.000000 640.000000"
 preserveAspectRatio="xMidYMid meet">

<g transform="translate(0.000000,640.000000) scale(0.100000,-0.100000)"
fill="#000000" stroke="none">
<path d="M1335 3925 c-5 -2 -29 -9 -53 -15 -23 -6 -40 -15 -37 -20 3 -4 -3 -6
-13 -3 -22 5 -148 -78 -144 -96 1 -7 -2 -10 -8 -6 -12 7 -58 -41 -104 -110
-120 -179 -118 -433 5 -619 22 -32 39 -61 39 -65 0 -3 -59 -65 -131 -136 -72
-72 -136 -141 -144 -155 -28 -54 11 -111 67 -97 13 4 90 74 171 156 l148 151
39 -25 c91 -58 236 -84 353 -65 82 13 183 52 179 69 -1 7 2 10 8 6 30 -19 177
125 222 217 40 82 58 161 58 258 0 159 -53 290 -160 400 -110 111 -231 161
-395 159 -49 0 -94 -2 -100 -4z m292 -136 c37 -19 74 -33 80 -33 7 1 11 -2 8
-6 -2 -3 14 -24 36 -46 50 -48 103 -137 124 -206 23 -80 20 -204 -9 -283 -13
-36 -36 -84 -52 -106 -35 -50 -118 -127 -161 -147 -18 -8 -30 -19 -27 -24 3
-4 -1 -5 -8 -3 -8 3 -36 -1 -63 -10 -98 -29 -228 -14 -335 40 -25 13 -51 33
-58 44 -7 12 -18 21 -25 21 -14 0 -76 77 -102 129 -47 93 -59 239 -29 342 16
55 86 169 123 203 11 10 18 23 14 29 -3 5 -1 7 4 4 6 -4 34 9 63 28 28 19 70
39 93 45 23 6 47 13 52 15 6 3 54 3 107 1 87 -3 104 -6 165 -37z"/>
<path d="M1392 3653 c-6 -2 -9 -10 -6 -15 4 -7 2 -8 -4 -4 -7 4 -22 0 -33 -8
-39 -27 -59 -68 -59 -122 0 -150 182 -209 274 -89 57 74 30 187 -55 229 -31
15 -90 20 -117 9z m8 -43 c0 -5 -2 -10 -4 -10 -3 0 -8 5 -11 10 -3 6 -1 10 4
10 6 0 11 -4 11 -10z m-60 -85 c14 -19 14 -19 -2 -6 -10 7 -18 18 -18 24 0 6
1 8 3 6 1 -2 9 -13 17 -24z m214 9 c3 -8 2 -12 -4 -9 -6 3 -10 10 -10 16 0 14
7 11 14 -7z"/>
<path d="M1300 3268 c-40 -15 -64 -28 -62 -36 1 -8 -2 -11 -8 -7 -12 7 -66
-46 -75 -75 -9 -29 2 -73 17 -64 7 4 8 3 4 -5 -11 -16 27 -48 94 -79 43 -20
75 -27 146 -30 106 -5 176 12 244 57 83 56 92 113 29 174 -63 59 -118 79 -229
84 -79 3 -106 0 -160 -19z"/>
<path d="M4248 3588 c-43 -25 -58 -54 -58 -113 0 -43 0 -44 -37 -47 -36 -3
-38 -5 -41 -40 l-3 -38 40 0 41 0 2 -177 3 -178 48 -3 47 -3 0 180 0 181 45 0
45 0 0 40 0 40 -45 0 c-44 0 -45 1 -45 33 0 45 18 65 60 69 33 3 35 5 36 41
l1 37 -51 0 c-33 0 -64 -8 -88 -22z"/>
<path d="M2280 3294 l0 -305 53 3 52 3 3 133 3 132 124 0 125 0 0 -135 0 -135
55 0 55 0 0 305 0 305 -55 0 -55 0 0 -125 0 -125 -125 0 -125 0 0 125 0 125
-55 0 -55 0 0 -306z"/>
<path d="M4470 3295 l0 -305 50 0 50 0 0 305 0 305 -50 0 -50 0 0 -305z"/>
<path d="M3870 3486 l0 -55 -42 -3 c-42 -3 -43 -4 -46 -40 -3 -37 -3 -37 40
-40 l43 -3 6 -155 c3 -85 7 -156 7 -158 1 -1 17 -11 35 -22 23 -14 50 -20 95
-20 l62 0 0 40 c0 39 -1 40 -35 40 -56 0 -66 26 -63 161 l3 114 48 3 47 3 0
40 0 39 -50 0 -50 0 0 55 0 55 -50 0 -50 0 0 -54z"/>
<path d="M3530 3429 c-14 -6 -37 -22 -52 -36 l-28 -27 0 32 0 32 -55 0 -55 0
0 -220 0 -220 55 0 55 0 0 148 c1 125 3 150 18 168 39 47 94 57 133 25 23 -19
24 -25 27 -180 l4 -161 49 0 49 0 0 170 c0 150 -2 176 -20 209 -30 61 -111 87
-180 60z"/>
<path d="M4787 3426 c-46 -17 -69 -35 -60 -49 3 -5 1 -7 -4 -4 -29 18 -73 -80
-73 -163 0 -138 84 -225 216 -223 66 1 104 16 148 59 47 48 60 82 60 164 1
112 -40 178 -132 213 -51 20 -103 21 -155 3z m147 -85 c-2 -2 5 -18 15 -35 78
-126 -20 -283 -139 -223 -54 27 -77 133 -44 203 25 52 50 65 116 62 31 -1 55
-5 52 -7z"/>
<path d="M2860 3265 c0 -133 3 -172 16 -198 25 -49 44 -66 86 -77 55 -15 105
-3 149 37 l38 34 -2 -33 -2 -33 53 -3 52 -3 -2 218 -3 218 -52 3 -53 3 0 -147
0 -147 -36 -33 c-39 -37 -76 -43 -109 -18 -18 13 -20 30 -25 177 l-5 162 -52
3 -53 3 0 -166z"/>
<path d="M5103 3413 c2 -10 33 -108 68 -218 l64 -200 51 -3 51 -3 33 113 c59
196 51 193 103 32 l45 -139 50 -3 51 -3 22 73 c18 63 89 298 105 351 5 15 -2
17 -46 17 -32 0 -52 -5 -55 -12 -6 -20 -42 -146 -61 -212 -11 -40 -19 -55 -24
-45 -4 8 -25 71 -46 142 l-37 127 -48 0 -47 0 -26 -87 c-49 -161 -64 -198 -69
-183 -6 16 -35 116 -62 213 l-16 57 -56 0 c-48 0 -55 -2 -50 -17z"/>
</g>
</svg>
